# xmcd
#
# Track frame offsets: 
#        150
#        15860
#        32730
#        42077
#        69539
#        87975
#        107917
#        124497
#        150334
#        168871
#        186627
#
# Disc length: 2834 seconds
#
# Revision: 0
# Processed by: cddbd v1.5.2PL0 Copyright (c) Steve Scherf et al.
# Submitted via: ExactAudioCopy v1.0b4
#
DISCID=880b100b
DTITLE=Jimmy Bowskill - Jimmy Bowskill
DYEAR=2007
DGENRE=Blues Rock
TTITLE0=Diamond Ring
TTITLE1=Rattle Snake Shake
TTITLE2=Nine
TTITLE3=Drifting Haze
TTITLE4=Far From Reality
TTITLE5=Black Sea Star
TTITLE6=The Kara-Dag
TTITLE7=Loser
TTITLE8=Mortisha
TTITLE9=Falling
TTITLE10=The Truth
EXTD=
EXTT0=
EXTT1=
EXTT2=
EXTT3=
EXTT4=
EXTT5=
EXTT6=
EXTT7=
EXTT8=
EXTT9=
EXTT10=
PLAYORDER=
